<svg width="211" height="20" viewBox="0 0 211 20" fill="none" xmlns="http://www.w3.org/2000/svg">
<g clip-path="url(#clip0_911_15815)">
<path d="M37.7071 16.62L17.761 16.62L20.7232 2.67139L40.6571 2.67139L40.0987 5.31556L25.4214 5.31556L24.8265 8.20232L34.1622 8.20232L33.6038 10.8465H24.2681L23.6125 13.9758L38.2656 13.9758L37.7071 16.62Z" fill="white"/>
<path d="M58.2838 16.62L38.3499 16.62L41.2999 2.67139L61.246 2.67139L60.6876 5.31556L45.9981 5.31556L45.4154 8.20232L54.7389 8.20232L54.1805 10.8465H44.8448L44.1893 13.9758L58.8423 13.9758L58.2838 16.62Z" fill="white"/>
<path d="M96.0038 16.62H82.6255C81.9578 16.62 81.3144 16.4987 80.6952 16.244C79.9911 15.965 79.639 15.6012 79.639 15.1524C79.639 15.1039 79.639 15.0311 79.6633 14.9583L81.9578 4.34523C82.067 3.81154 82.5769 3.38701 83.4631 3.07165C84.2037 2.80481 84.9928 2.67139 85.8304 2.67139L98.6989 2.67139C99.403 2.67139 100.083 2.78055 100.738 3.011C101.54 3.28998 101.94 3.65386 101.94 4.10264C101.94 4.1269 101.94 4.18754 101.916 4.28458L99.6579 14.9704C99.5608 15.4435 99.0874 15.8559 98.2376 16.1834C97.497 16.4745 96.7443 16.62 96.0038 16.62ZM94.5349 13.9758L96.368 5.31556L87.0809 5.31556L85.2356 13.9758H94.5227H94.5349Z" fill="white"/>
<path d="M119.882 16.62L99.9355 16.62L102.898 2.67139L108.179 2.67139L105.787 13.9758L120.44 13.9758L119.882 16.62Z" fill="white"/>
<path d="M137.168 16.623H123.79C123.025 16.623 122.382 16.5017 121.835 16.2713C121.18 15.9923 120.852 15.6042 120.852 15.0947C120.852 15.0098 120.852 14.9249 120.876 14.84L123.438 2.68652L128.779 2.68652L126.364 13.991L135.711 13.991L138.127 2.68652L143.408 2.68652L140.81 14.9856C140.713 15.4586 140.24 15.871 139.39 16.1985C138.649 16.4896 137.897 16.6351 137.156 16.6351" fill="white"/>
<path d="M163.417 5.31556L156.327 5.31556L153.924 16.62H148.643L151.047 5.31556L143.471 5.31556L144.03 2.67139L163.976 2.67139L163.417 5.31556Z" fill="white"/>
<path d="M166.84 16.5526H161.559L164.521 2.604L169.827 2.604L166.84 16.5526Z" fill="white"/>
<path d="M184.467 16.62H171.089C170.421 16.62 169.778 16.4987 169.159 16.244C168.454 15.965 168.102 15.6012 168.102 15.1524C168.102 15.1039 168.102 15.0311 168.127 14.9583L170.421 4.34523C170.53 3.81154 171.04 3.38701 171.927 3.07165C172.667 2.80481 173.456 2.67139 174.294 2.67139L187.162 2.67139C187.866 2.67139 188.546 2.78055 189.202 3.011C190.003 3.28998 190.404 3.65386 190.404 4.10264C190.404 4.1269 190.404 4.18754 190.379 4.28458L188.121 14.9704C188.024 15.4435 187.551 15.8559 186.701 16.1834C185.96 16.4745 185.208 16.62 184.467 16.62ZM182.998 13.9758L184.831 5.31556L175.544 5.31556L173.699 13.9758H182.986H182.998Z" fill="white"/>
<path d="M208.335 16.62L203.054 16.62L205.458 5.31556L196.073 5.31556L193.67 16.62H188.389L191.351 2.67139L207.74 2.67139C208.444 2.67139 209.124 2.78055 209.779 3.011C210.581 3.28998 210.981 3.65386 210.981 4.10264C210.981 4.17541 210.981 4.22393 210.957 4.28458L208.335 16.62Z" fill="white"/>
<path d="M19.509 3.69891L12.5771 3.69891L10.2219 19.2001H5.05025L7.40542 3.69891L0 3.69891L0.546301 0.0722656L20.0553 0.0722656L19.509 3.69891Z" fill="white"/>
<path d="M81.2668 1.16441L70.1344 19.1885H67.3908L61.7457 1.14015L66.8202 0L70.098 10.3826L76.7993 0.0970361L81.2668 1.16441Z" fill="#78BE1F"/>
</g>
<defs>
<clipPath id="clip0_911_15815">
<rect width="210.981" height="19.2001" fill="white"/>
</clipPath>
</defs>
</svg>
