<svg width="47" height="40" viewBox="0 0 47 40" fill="none" xmlns="http://www.w3.org/2000/svg">
<g clip-path="url(#clip0_911_16245)">
<path d="M0.00810815 0L23.1114 40L45.704 0.891229L46.2147 0L0 0L0.00810815 0ZM44.1638 1.1829L23.1114 37.6342L2.05903 1.1829L44.1719 1.1829H44.1638Z" fill="black"/>
<path d="M5.40546 3.08838L32.9541 3.08838L29.3735 9.1334L8.90486 9.1334L5.40546 3.08838Z" fill="black"/>
<path d="M16.8647 9.14111L23.3288 9.14111L30.2529 21.2421L27.0733 26.7617L16.8647 9.14111Z" fill="black"/>
<path d="M9.78345 10.5435L15.997 10.5435L26.2611 28.1575L23.126 33.566L9.78345 10.5435Z" fill="black"/>
<path d="M34.5923 3.10453L40.8081 3.08838L31.1328 19.68L27.9349 14.3513L34.5923 3.10453Z" fill="black"/>
<path d="M27.2258 12.8586L28.5775 10.5435H25.8741L27.2258 12.8586Z" fill="black"/>
</g>
<defs>
<clipPath id="clip0_911_16245">
<rect width="46.2147" height="40" fill="white"/>
</clipPath>
</defs>
</svg>
